<?xml version="1.0" standalone="no"?>
<!DOCTYPE svg PUBLIC "-//W3C//DTD SVG 20010904//EN"
 "http://www.w3.org/TR/2001/REC-SVG-20010904/DTD/svg10.dtd">
<svg version="1.0" xmlns="http://www.w3.org/2000/svg"
 width="500.000000pt" height="500.000000pt" viewBox="0 0 500.000000 500.000000"
 preserveAspectRatio="xMidYMid meet">

<g transform="translate(0.000000,500.000000) scale(0.100000,-0.100000)"
fill="#000000" stroke="none">
<path d="M3915 3686 c-238 -56 -432 -256 -491 -506 l-17 -75 -186 -2 c-133 -1
-200 -6 -236 -17 l-50 -15 85 4 c294 16 372 17 383 6 6 -6 37 -11 69 -11 53 0
58 -2 58 -22 0 -39 -20 -98 -41 -119 -16 -16 -33 -19 -108 -19 l-89 0 -7 -29
c-3 -16 -3 -41 2 -57 7 -29 8 -28 13 11 l5 40 67 3 67 3 20 -38 c10 -21 28
-47 40 -57 21 -19 21 -19 21 0 0 10 -9 33 -20 49 -23 35 -25 45 -7 45 15 0 47
51 47 74 0 9 7 16 15 16 8 0 15 6 15 13 0 6 5 29 11 50 l10 37 109 0 110 0 0
43 c0 69 40 140 97 174 42 25 58 28 128 28 63 0 90 -5 127 -23 112 -55 161
-152 127 -251 -8 -23 -14 -29 -20 -20 -4 7 -11 10 -14 7 -4 -4 -40 -136 -80
-295 -40 -158 -77 -299 -83 -313 -21 -53 -85 -90 -155 -90 -19 0 -27 -4 -25
-12 7 -20 102 -22 137 -3 43 22 60 52 85 151 l22 87 109 36 c235 78 356 202
400 409 63 302 -61 547 -338 665 -67 29 -81 31 -212 34 -93 2 -160 -2 -200
-11z m288 -2 c21 -4 36 -12 34 -18 -3 -8 -43 -10 -128 -8 -131 4 -217 -10
-303 -49 -44 -20 -70 -24 -62 -10 11 17 137 61 214 75 84 15 186 19 245 10z
m158 -49 c59 -30 157 -104 179 -135 12 -17 20 -30 18 -31 -2 0 -23 -3 -48 -5
-75 -9 -155 -51 -210 -111 -28 -30 -50 -59 -50 -63 0 -5 -25 4 -56 21 -31 16
-65 29 -75 29 -27 0 -25 37 8 118 32 82 81 161 117 190 29 22 52 20 117 -13z
m-603 -72 c70 -43 116 -108 141 -197 10 -38 9 -41 -27 -75 -21 -20 -44 -46
-52 -59 l-15 -22 -55 22 c-62 25 -208 30 -248 9 -35 -19 -29 11 24 116 36 71
62 107 114 158 38 36 73 65 79 65 7 0 24 -8 39 -17z m848 -163 c13 -25 26 -61
29 -80 5 -29 0 -23 -29 33 -19 38 -41 76 -48 84 -10 13 -9 15 6 12 10 -2 29
-24 42 -49z m-16 -345 c54 -22 55 -22 53 -61 -7 -109 -134 -273 -257 -333
-111 -53 -107 -54 -140 41 l-29 84 19 78 c12 51 28 91 47 115 16 19 31 48 34
63 4 18 13 30 27 33 11 2 30 6 41 9 39 9 151 -7 205 -29z"/>
<path d="M1085 2983 c-30 -121 -82 -190 -166 -222 -18 -6 -28 -19 -32 -39 -3
-16 -9 -41 -13 -56 -5 -23 -3 -26 20 -26 34 0 126 35 171 66 l37 25 16 -22
c18 -26 107 -69 143 -69 23 0 27 6 39 57 9 43 9 58 1 61 -7 2 -25 15 -41 29
-41 34 -46 77 -23 178 l20 85 -77 0 -78 0 -17 -67z"/>
<path d="M1411 3013 c-21 -81 -111 -443 -111 -448 0 -3 27 -5 59 -5 91 0 92 1
156 257 30 122 55 225 55 228 0 3 -34 5 -75 5 l-74 0 -10 -37z"/>
<path d="M1702 2967 c-29 -105 -63 -154 -129 -187 -45 -21 -54 -31 -63 -65 -6
-22 -13 -48 -16 -57 -4 -14 1 -18 19 -18 40 0 140 39 178 70 l36 29 12 -25
c12 -28 101 -74 142 -74 24 0 28 6 41 58 l15 59 -27 10 c-70 26 -80 107 -34
266 5 15 -3 17 -73 17 l-78 0 -23 -83z"/>
<path d="M2030 3000 l-12 -50 -53 0 c-51 0 -53 -1 -59 -31 -14 -71 -10 -79 39
-79 25 0 45 -1 45 -2 0 -2 -16 -63 -34 -135 l-34 -133 62 0 c35 0 70 6 80 13
12 9 34 81 71 227 30 118 55 221 55 228 0 8 -21 12 -74 12 l-74 0 -12 -50z"/>
<path d="M2300 3009 c-19 -71 -24 -69 198 -69 109 0 201 -3 204 -6 8 -7 -17
-102 -42 -159 l-19 -45 -223 -2 -223 -3 -11 -45 c-17 -66 -10 -70 123 -70 104
0 114 -2 109 -17 -9 -30 -56 -221 -56 -227 0 -3 27 -6 60 -6 76 0 91 14 114
106 9 38 21 86 27 107 l10 37 105 0 c58 0 115 5 126 11 19 10 20 9 14 -15 -6
-26 -6 -26 36 -20 91 13 162 43 245 105 l52 39 16 -29 c26 -52 117 -103 201
-115 l41 -6 11 51 c15 65 15 69 -5 69 -34 0 -104 43 -128 78 -25 36 -31 83
-19 130 6 20 12 22 79 22 122 0 133 5 150 63 8 28 15 52 15 54 0 2 -130 3
-289 3 l-288 0 -7 -31 c-10 -51 -7 -76 10 -83 9 -3 54 -6 100 -6 84 0 85 0 78
-22 -15 -51 -45 -98 -81 -127 -74 -61 -193 -103 -193 -67 0 10 -9 16 -25 16
-25 0 -25 0 -10 31 9 17 31 89 50 160 l33 129 -288 0 -289 0 -11 -41z"/>
<path d="M3606 3033 c-24 -78 -156 -614 -156 -635 0 -21 6 -29 25 -34 31 -8
210 1 244 12 17 5 22 4 17 -4 -11 -18 95 -15 120 3 26 17 37 45 64 155 38 152
40 160 55 160 20 0 20 -4 -24 -177 l-39 -153 49 0 c39 0 55 5 79 28 29 25 37
49 110 342 44 173 80 316 80 318 0 1 -33 2 -73 2 l-73 0 -28 -116 c-25 -102
-44 -140 -61 -122 -2 2 9 55 25 118 16 63 30 116 30 118 0 1 -33 2 -73 2 l-72
0 -69 -274 c-68 -274 -68 -275 -98 -285 -43 -15 -118 -14 -118 2 0 6 24 107
53 222 50 199 54 210 78 213 94 10 101 15 113 85 l7 37 -130 0 c-115 0 -130
-2 -135 -17z"/>
<path d="M1261 2973 c-12 -64 -15 -96 -12 -133 2 -20 20 52 42 164 2 10 -1 21
-7 23 -7 2 -16 -20 -23 -54z"/>
<path d="M1581 2993 c-5 -21 -17 -67 -26 -103 -9 -36 -18 -73 -21 -82 -3 -11
0 -18 9 -18 10 0 23 32 41 105 14 57 26 111 26 120 0 29 -19 15 -29 -22z"/>
<path d="M1897 3023 c-10 -18 -29 -113 -24 -125 3 -8 6 -6 6 5 1 10 10 39 22
64 13 29 17 49 11 55 -5 5 -12 6 -15 1z"/>
<path d="M2161 2824 c-28 -113 -58 -219 -66 -234 -18 -34 -35 -42 -110 -49
-84 -8 -75 -25 15 -29 109 -4 109 -3 176 260 54 214 61 258 45 258 -5 0 -32
-93 -60 -206z"/>
<path d="M2863 2862 c-12 -42 -24 -85 -28 -94 -5 -13 -2 -18 9 -18 15 0 23 22
54 142 9 34 7 48 -7 48 -3 0 -16 -35 -28 -78z"/>
<path d="M3830 2920 c-8 -6 -31 -10 -50 -10 l-35 0 -51 -205 c-38 -152 -48
-205 -38 -205 7 0 18 19 24 43 20 77 21 79 33 69 7 -5 22 -13 35 -16 16 -6 22
-3 22 8 0 9 -6 16 -13 16 -7 0 -21 6 -31 13 -16 12 -15 19 11 125 l27 112 33
0 c27 0 35 5 44 26 11 31 9 36 -11 24z"/>
<path d="M2290 2917 c0 -3 7 -13 16 -21 11 -12 36 -16 95 -16 43 0 79 -3 79
-7 0 -5 -19 -20 -43 -36 -67 -44 -114 -87 -94 -87 9 0 53 27 97 60 80 59 103
68 189 72 25 2 46 9 49 16 3 9 -36 12 -170 12 -95 0 -183 3 -195 6 -13 4 -23
4 -23 1z"/>
<path d="M2920 2903 c0 -7 10 -15 23 -18 37 -10 140 -1 144 12 3 8 -22 12 -81
15 -63 2 -86 0 -86 -9z"/>
<path d="M1900 2811 c0 -18 41 -34 53 -22 13 13 10 16 -25 25 -16 4 -28 2 -28
-3z"/>
<path d="M3786 2719 c-9 -29 -16 -62 -15 -73 0 -12 9 10 19 49 22 82 18 101
-4 24z"/>
<path d="M1045 2669 l-50 -29 43 0 c23 0 51 5 62 12 16 10 23 9 42 -9 47 -42
133 -72 142 -48 6 18 -3 25 -33 25 -31 0 -108 34 -136 60 -20 18 -21 17 -70
-11z"/>
<path d="M1665 2669 l-50 -29 43 0 c24 0 52 5 64 11 16 9 24 7 44 -12 28 -26
125 -61 138 -49 12 12 -2 30 -23 30 -33 0 -107 30 -133 55 -15 14 -28 25 -30
24 -2 -1 -25 -14 -53 -30z"/>
<path d="M3086 2655 l-50 -35 40 0 c30 0 47 6 63 24 21 22 22 46 3 46 -4 0
-29 -16 -56 -35z"/>
<path d="M3438 2623 l-14 -58 -52 1 c-60 2 -99 15 -162 57 l-45 30 35 -37 c19
-20 57 -47 85 -60 58 -27 140 -39 153 -22 11 13 32 97 32 125 0 41 -18 20 -32
-36z"/>
<path d="M873 2605 c-8 -22 6 -33 17 -15 13 20 12 30 0 30 -6 0 -13 -7 -17
-15z"/>
<path d="M896 2515 c-32 -130 -33 -151 -3 -159 36 -9 453 -7 480 3 22 9 36 32
52 89 l6 22 -195 0 c-108 0 -196 3 -196 8 0 4 7 32 15 62 22 83 24 80 -59 80
l-74 0 -26 -105z"/>
<path d="M1490 2608 c-5 -7 -18 -24 -29 -38 -16 -21 -28 -25 -90 -28 -60 -4
-71 -7 -69 -21 5 -25 138 -23 167 3 21 19 51 71 51 88 0 12 -18 10 -30 -4z"/>
<path d="M1541 2598 c-4 -13 -19 -67 -32 -122 -32 -133 -45 -126 237 -126 123
0 234 4 248 10 28 10 40 29 51 78 l7 32 -196 0 c-108 0 -196 1 -196 3 0 1 7
27 15 57 24 91 25 90 -55 90 -64 0 -71 -2 -79 -22z"/>
<path d="M2940 2583 c-36 -12 -80 -22 -98 -23 -26 0 -33 -4 -30 -17 3 -14 13
-18 48 -16 90 4 156 33 148 65 -2 10 -18 8 -68 -9z"/>
<path d="M2119 2540 c-61 -69 -54 -84 9 -19 45 48 48 49 78 39 17 -6 64 -10
105 -8 60 2 74 6 77 20 3 15 -10 17 -109 20 l-112 3 -48 -55z"/>
<path d="M3019 2538 l-14 -63 -127 -3 -126 -3 -6 -35 c-4 -19 -4 -44 -1 -55 6
-19 16 -19 307 -17 l301 3 17 25 c10 14 21 37 24 53 l6 27 -120 0 c-134 0
-128 -5 -106 78 l14 52 -77 0 -78 0 -14 -62z"/>
<path d="M1081 2553 c-13 -47 -14 -63 -2 -63 14 0 19 12 27 58 8 54 -11 57
-25 5z"/>
<path d="M1701 2546 c-14 -56 -14 -56 3 -56 9 0 17 15 21 40 9 51 8 54 -3 58
-5 1 -15 -17 -21 -42z"/>
<path d="M2581 2553 c-6 -21 -15 -60 -22 -88 -25 -104 -61 -135 -154 -135 -33
0 -45 -4 -45 -15 0 -12 14 -15 69 -15 101 0 120 18 151 149 l24 101 99 0 c86
0 98 2 93 16 -3 9 -6 18 -6 20 0 2 -45 4 -100 4 l-99 0 -10 -37z"/>
<path d="M3196 2544 c-8 -38 -2 -54 13 -38 14 14 18 66 5 71 -7 2 -15 -12 -18
-33z"/>
<path d="M1444 2434 c-35 -107 -30 -106 -329 -102 -135 2 -245 1 -245 -2 0
-26 35 -30 280 -30 253 0 257 0 277 23 27 28 49 105 34 120 -7 7 -12 4 -17 -9z"/>
<path d="M2061 2412 c-21 -77 -20 -77 -311 -77 -243 0 -257 -1 -249 -17 9 -16
29 -18 204 -18 152 0 195 -3 195 -13 0 -7 -30 -43 -68 -80 l-68 -67 -269 -2
-270 -3 250 -2 c137 -2 253 -7 257 -11 13 -13 -115 -129 -227 -208 -118 -84
-277 -159 -366 -173 -114 -19 -167 -14 -239 22 -54 27 -69 39 -87 77 -20 39
-21 50 -12 85 15 55 72 106 160 143 84 36 79 43 -8 10 -74 -27 -159 -105 -173
-160 -9 -31 -7 -46 8 -82 104 -234 500 -147 879 193 74 66 109 91 130 92 17 1
21 3 11 6 -10 2 -18 8 -18 11 1 4 31 40 68 80 57 62 73 74 107 78 22 3 50 7
62 10 25 5 48 42 58 96 10 50 -11 59 -24 10z"/>
<path d="M3410 2416 c-6 -18 -22 -44 -36 -57 -26 -24 -26 -24 -301 -27 -168
-2 -286 1 -304 7 -27 9 -28 8 -19 -8 5 -10 17 -21 26 -25 8 -3 146 -6 304 -6
285 0 289 0 315 23 20 17 27 35 32 75 6 60 0 67 -17 18z"/>
<path d="M3863 2353 c-25 -17 -62 -18 -275 -12 -76 2 -138 1 -138 -3 0 -4 10
-14 23 -22 34 -23 380 -20 407 3 11 10 16 22 12 32 -6 15 -9 15 -29 2z"/>
<path d="M2375 2198 c-2 -7 -6 -31 -10 -53 -4 -22 -9 -44 -12 -49 -3 -5 -7
-23 -8 -40 -1 -17 -6 -48 -10 -69 l-7 -37 833 2 833 3 17 85 c10 47 20 104 24
128 l6 42 -831 0 c-656 0 -831 -3 -835 -12z m235 -43 c0 -10 -11 -15 -35 -15
-28 0 -35 -4 -35 -20 0 -13 7 -20 20 -20 30 0 24 -18 -7 -22 -19 -2 -29 -10
-33 -28 -6 -25 -40 -42 -40 -20 0 6 7 40 16 75 l16 65 49 0 c37 0 49 -4 49
-15z m310 -11 c0 -14 4 -23 8 -20 4 2 14 1 21 -4 10 -6 12 -20 7 -54 -6 -37
-11 -46 -27 -46 -17 0 -18 5 -13 40 4 22 4 40 1 40 -4 0 -11 -18 -17 -40 -8
-29 -16 -40 -30 -40 -16 0 -17 4 -10 33 5 17 14 51 20 75 12 47 40 59 40 16z
m261 16 c24 -13 25 -42 1 -63 -13 -12 -17 -26 -14 -47 4 -25 1 -30 -17 -30
-16 0 -21 6 -21 25 0 14 -4 25 -10 25 -5 0 -10 -9 -10 -20 0 -20 -25 -38 -37
-27 -3 3 2 38 12 77 16 67 18 70 47 70 16 0 38 -5 49 -10z m603 -22 c-6 -29
-5 -31 9 -19 9 7 23 11 32 9 15 -3 14 -6 -4 -30 -16 -20 -19 -32 -12 -50 10
-25 13 -20 29 42 7 32 12 35 46 37 30 2 37 -1 34 -15 -2 -9 -12 -17 -23 -17
-14 0 -22 -10 -28 -37 -9 -37 -10 -38 -53 -38 -35 0 -44 4 -44 18 -1 16 -1 16
-11 0 -9 -17 -39 -25 -39 -12 0 11 32 128 36 136 3 5 12 8 20 8 12 0 14 -7 8
-32z m-1106 -26 c-2 -10 -12 -17 -23 -17 -14 0 -22 -10 -28 -37 -7 -28 -14
-38 -29 -38 -14 0 -18 5 -14 18 3 9 8 31 12 47 10 43 10 43 50 43 27 0 34 -4
32 -16z m81 4 c10 -12 16 -12 40 2 31 17 61 11 61 -14 0 -12 -6 -15 -26 -10
-17 5 -23 3 -19 -4 3 -5 13 -10 21 -10 11 0 14 -8 12 -27 -3 -24 -8 -29 -37
-31 -18 -2 -38 1 -44 7 -7 7 -14 7 -23 0 -7 -6 -25 -9 -41 -7 -23 2 -29 8 -31
34 -2 25 3 37 24 53 31 25 47 26 63 7z m519 2 c7 -7 12 -22 12 -35 0 -20 -5
-23 -37 -23 -58 0 -31 -12 31 -13 56 -2 74 6 36 16 -29 8 -26 45 6 59 18 9 30
9 42 1 23 -14 13 -29 -16 -25 -28 4 -21 -13 7 -21 14 -3 25 3 35 18 19 29 52
41 71 25 9 -7 15 -8 20 0 3 5 13 10 20 10 11 0 13 -10 8 -45 -3 -25 -3 -45 0
-45 4 0 12 20 18 45 9 34 16 45 31 45 15 0 18 -5 13 -21 -7 -21 -6 -21 24 2
38 28 64 18 69 -25 3 -24 0 -26 -33 -26 -20 0 -34 -4 -31 -9 3 -4 18 -6 33 -3
25 5 27 4 14 -12 -22 -26 -74 -18 -82 14 l-6 25 -4 -25 c-5 -30 -61 -46 -84
-24 -9 9 -16 10 -20 4 -10 -16 -63 -12 -73 6 -8 15 -10 15 -15 0 -7 -18 -72
-23 -82 -6 -5 8 -11 7 -20 0 -8 -6 -26 -10 -42 -8 -23 2 -29 8 -31 34 -2 25 3
37 24 53 30 24 45 26 62 9z m-208 -23 c0 -11 -12 -15 -50 -15 -46 0 -60 7 -43
23 3 4 26 7 50 7 32 0 43 -4 43 -15z m638 -62 c-2 -10 -13 -19 -25 -21 -17 -3
-20 1 -16 17 7 26 46 29 41 4z"/>
<path d="M3127 2120 c-4 -16 -1 -20 11 -18 19 4 23 29 6 35 -6 2 -14 -6 -17
-17z"/>
<path d="M2715 2090 c-3 -5 -2 -10 4 -10 5 0 13 5 16 10 3 6 2 10 -4 10 -5 0
-13 -4 -16 -10z"/>
<path d="M2770 2069 c0 -5 -16 -9 -37 -9 -20 0 -33 -3 -30 -6 7 -7 105 -9 112
-3 2 2 -7 9 -21 16 -13 6 -24 7 -24 2z"/>
<path d="M3235 2090 c-3 -5 -2 -10 4 -10 5 0 13 5 16 10 3 6 2 10 -4 10 -5 0
-13 -4 -16 -10z"/>
<path d="M3426 2092 c-3 -3 -6 -15 -6 -27 0 -18 4 -21 25 -17 30 5 34 37 6 45
-11 3 -22 2 -25 -1z"/>
<path d="M3615 2090 c-3 -5 -2 -10 4 -10 5 0 13 5 16 10 3 6 2 10 -4 10 -5 0
-13 -4 -16 -10z"/>
<path d="M1100 2120 l-25 -8 25 0 c14 -1 43 3 65 7 l40 9 -40 0 c-22 0 -51 -4
-65 -8z"/>
<path d="M1908 2113 c6 -2 18 -2 25 0 6 3 1 5 -13 5 -14 0 -19 -2 -12 -5z"/>
<path d="M1973 2103 c9 -2 23 -2 30 0 6 3 -1 5 -18 5 -16 0 -22 -2 -12 -5z"/>
<path d="M2178 2093 c7 -3 16 -2 19 1 4 3 -2 6 -13 5 -11 0 -14 -3 -6 -6z"/>
<path d="M2285 2090 c-8 -12 20 -24 35 -15 6 3 8 11 5 16 -8 12 -32 12 -40 -1z"/>
</g>
</svg>
