<svg width="200" height="200" viewBox="0 0 200 200" xmlns="http://www.w3.org/2000/svg">
  <!-- 흰 배경 원 -->
  <circle cx="100" cy="100" r="96" fill="white" stroke="#FF6B35" stroke-width="5"/>

  <!-- 점선 후광 -->
  <circle cx="100" cy="100" r="78" fill="none" stroke="#FF6B35" stroke-width="1.5" stroke-dasharray="7 5" opacity="0.35"/>

  <!-- 사이렌 등 (머리 위) -->
  <rect x="86" y="42" width="28" height="16" rx="5" fill="#FF2222"/>
  <ellipse cx="100" cy="42" rx="14" ry="7" fill="#FF4444"/>

  <!-- 사이렌 빛줄기 -->
  <line x1="100" y1="30" x2="100" y2="22" stroke="#FF4444" stroke-width="3.5" stroke-linecap="round" opacity="0.85"/>
  <line x1="116" y1="36" x2="122" y2="29" stroke="#FF4444" stroke-width="3.5" stroke-linecap="round" opacity="0.65"/>
  <line x1="84"  y1="36" x2="78"  y2="29" stroke="#FF4444" stroke-width="3.5" stroke-linecap="round" opacity="0.65"/>
  <line x1="124" y1="46" x2="131" y2="42" stroke="#FF4444" stroke-width="2.5" stroke-linecap="round" opacity="0.4"/>
  <line x1="76"  y1="46" x2="69"  y2="42" stroke="#FF4444" stroke-width="2.5" stroke-linecap="round" opacity="0.4"/>

  <!-- 귀 -->
  <ellipse cx="57"  cy="108" rx="10" ry="13" fill="#FFD9B3"/>
  <ellipse cx="143" cy="108" rx="10" ry="13" fill="#FFD9B3"/>

  <!-- 머리카락 (단발) -->
  <path d="M57 92 Q62 60 100 56 Q138 60 143 92" fill="#3D2B1F"/>
  <path d="M57 92 Q55 105 58 115" fill="#3D2B1F"/>
  <path d="M143 92 Q145 105 142 115" fill="#3D2B1F"/>

  <!-- 얼굴 -->
  <ellipse cx="100" cy="108" rx="40" ry="42" fill="#FFD9B3"/>

  <!-- 볼터치 -->
  <ellipse cx="74"  cy="118" rx="11" ry="7" fill="#FF9999" opacity="0.55"/>
  <ellipse cx="126" cy="118" rx="11" ry="7" fill="#FF9999" opacity="0.55"/>

  <!-- 왼쪽 눈 (동그란 눈) -->
  <ellipse cx="85" cy="103" rx="9" ry="10" fill="white"/>
  <circle  cx="87" cy="104" r="6"  fill="#2C2C2C"/>
  <circle  cx="89" cy="102" r="2"  fill="white"/>

  <!-- 오른쪽 눈 (윙크) -->
  <path d="M107 103 Q116 97 125 103" stroke="#2C2C2C" stroke-width="3.5" fill="none" stroke-linecap="round"/>
  <path d="M108 103 Q116 110 124 103" stroke="#2C2C2C" stroke-width="1.5" fill="none" stroke-linecap="round" opacity="0.3"/>

  <!-- 코 -->
  <ellipse cx="100" cy="113" rx="4" ry="3" fill="#E8A080"/>

  <!-- 입 (씩 웃음) -->
  <path d="M88 124 Q100 134 112 124" stroke="#C05030" stroke-width="3" fill="none" stroke-linecap="round"/>

  <!-- 하단 오렌지 배지 -->
  <rect x="62" y="145" width="76" height="20" rx="10" fill="#FF6B35"/>
  <text x="100" y="159" text-anchor="middle" font-size="11" font-weight="bold" fill="white" font-family="Arial, sans-serif">신선구조대</text>
</svg>
