<?xml version="1.0" standalone="no"?>
<!DOCTYPE svg PUBLIC "-//W3C//DTD SVG 20010904//EN"
 "http://www.w3.org/TR/2001/REC-SVG-20010904/DTD/svg10.dtd">
<svg version="1.0" xmlns="http://www.w3.org/2000/svg"
 width="500.000000pt" height="500.000000pt" viewBox="0 0 500.000000 500.000000"
 preserveAspectRatio="xMidYMid meet">

<g transform="translate(0.000000,500.000000) scale(0.100000,-0.100000)"
fill="#000000" stroke="none">
<path d="M2420 4684 c-14 -2 -79 -11 -145 -20 -254 -33 -512 -161 -686 -341
-67 -69 -139 -162 -139 -180 0 -4 -7 -14 -15 -23 -37 -40 -86 -159 -101 -240
-9 -47 -18 -98 -21 -115 -3 -16 -7 -81 -8 -143 -1 -62 -5 -115 -8 -118 -2 -3
-33 2 -67 11 -91 24 -223 16 -322 -19 -138 -48 -290 -167 -337 -262 -14 -27
-33 -60 -42 -74 -14 -19 -20 -54 -25 -137 -9 -153 11 -212 109 -318 93 -102
187 -148 331 -164 55 -7 101 -13 103 -15 2 -2 -17 -47 -42 -100 -25 -53 -45
-102 -45 -109 0 -7 -6 -21 -14 -32 -7 -11 -19 -45 -26 -75 -7 -30 -21 -73 -32
-97 -20 -45 -59 -229 -86 -403 -16 -98 -5 -293 21 -390 36 -131 64 -193 122
-263 100 -124 228 -172 390 -147 83 13 266 76 370 128 33 16 76 35 96 41 20 7
45 21 54 31 10 11 25 20 34 20 9 0 25 6 36 14 11 7 70 39 130 71 61 32 121 66
135 75 54 36 60 35 123 -32 33 -35 80 -90 104 -123 25 -32 58 -75 74 -95 17
-19 67 -80 112 -135 102 -125 171 -192 267 -259 131 -91 192 -119 304 -136 83
-12 235 -1 306 24 68 23 149 78 224 151 59 57 81 89 118 165 54 114 61 131 89
240 53 207 77 498 55 675 -10 73 -66 270 -111 385 -19 47 -37 96 -40 110 -7
28 -11 26 137 59 21 5 43 13 50 19 7 6 31 17 53 24 77 27 259 176 324 265 64
89 108 193 115 277 6 60 3 82 -17 142 -14 39 -31 83 -38 97 -23 43 -110 110
-196 150 -110 52 -193 63 -341 47 -62 -7 -114 -11 -116 -9 -2 2 -1 25 3 51 10
63 5 288 -7 364 -6 34 -24 93 -41 132 -17 39 -31 77 -31 85 0 21 -153 247
-194 287 -20 19 -47 46 -59 59 -63 69 -192 161 -302 215 -113 56 -208 96 -228
96 -8 0 -30 7 -49 15 -70 29 -383 63 -458 49z m252 -169 c94 -17 323 -89 348
-109 8 -7 45 -29 81 -49 36 -20 72 -43 79 -52 7 -8 18 -15 24 -15 6 0 57 -44
113 -97 125 -120 211 -246 266 -388 34 -90 39 -113 47 -240 9 -143 5 -181 -41
-345 -5 -20 -6 -48 -1 -65 8 -28 12 -30 60 -33 38 -2 77 6 155 32 166 57 279
48 405 -33 45 -29 69 -54 91 -93 42 -72 41 -125 0 -204 -75 -140 -175 -232
-358 -326 -65 -34 -94 -42 -204 -58 -71 -10 -131 -21 -135 -25 -4 -4 -7 -37
-7 -73 0 -53 5 -76 24 -107 13 -22 32 -55 43 -74 24 -42 98 -236 98 -256 0 -9
11 -46 24 -84 30 -87 42 -236 27 -344 -6 -42 -16 -119 -21 -170 -14 -126 -41
-212 -106 -342 -56 -113 -74 -137 -158 -204 -96 -77 -139 -94 -252 -99 -114
-5 -114 -5 -271 100 -40 26 -74 48 -77 48 -3 0 -37 33 -77 72 -72 73 -122 134
-190 231 -20 29 -59 76 -88 105 -28 29 -51 57 -51 62 0 10 -61 81 -110 128
-55 53 -93 65 -185 59 -78 -4 -96 -11 -195 -66 -35 -19 -67 -36 -104 -54 -21
-10 -61 -34 -87 -53 -27 -19 -52 -34 -57 -34 -12 0 -57 -21 -167 -76 -116 -59
-297 -124 -346 -124 -62 0 -110 20 -155 66 -25 24 -48 44 -52 44 -15 1 -64
128 -93 240 -21 82 -13 291 15 425 27 125 48 198 72 252 8 17 14 37 14 43 0
43 82 225 167 371 62 105 74 143 65 189 -8 35 -8 35 -67 38 -41 2 -82 -4 -129
-19 -94 -29 -160 -23 -256 25 -77 39 -129 75 -129 90 -1 6 -12 22 -26 36 -29
30 -50 123 -40 173 10 48 80 150 133 194 154 128 294 169 423 124 91 -32 110
-44 130 -83 l20 -39 72 3 72 3 5 35 c3 21 -4 69 -18 120 -32 115 -41 307 -18
403 28 121 138 303 247 408 32 31 59 62 59 68 0 6 12 17 28 23 15 7 46 25 69
40 23 15 44 28 47 28 3 0 15 9 26 20 11 11 27 20 37 20 9 0 35 11 57 24 60 34
164 66 284 86 136 23 234 24 344 5z"/>
<path d="M2180 3893 c-18 -23 -21 -36 -16 -78 7 -66 33 -99 78 -103 29 -3 38
2 53 25 21 32 28 108 12 138 -27 53 -92 62 -127 18z"/>
<path d="M2865 3898 c-31 -17 -35 -28 -35 -95 0 -55 3 -64 26 -82 36 -28 78
-27 96 2 20 30 30 114 18 138 -10 18 -60 49 -77 49 -4 0 -17 -6 -28 -12z"/>
<path d="M2009 3521 c-48 -38 -16 -143 72 -236 69 -73 211 -169 279 -188 30
-8 100 -20 156 -26 170 -18 275 10 451 119 43 28 149 159 159 198 10 37 -4 69
-35 82 -57 23 -81 11 -143 -72 -44 -58 -71 -83 -114 -107 -32 -17 -62 -31 -67
-31 -5 0 -23 -6 -40 -14 -79 -35 -164 -39 -294 -15 -117 21 -258 136 -283 231
-19 69 -91 99 -141 59z"/>
</g>
</svg>
