<?xml version="1.0" standalone="no"?>
<!DOCTYPE svg PUBLIC "-//W3C//DTD SVG 20010904//EN"
 "http://www.w3.org/TR/2001/REC-SVG-20010904/DTD/svg10.dtd">
<svg version="1.0" xmlns="http://www.w3.org/2000/svg"
 width="500.000000pt" height="500.000000pt" viewBox="0 0 500.000000 500.000000"
 preserveAspectRatio="xMidYMid meet">

<g transform="translate(0.000000,500.000000) scale(0.100000,-0.100000)"
fill="#000000" stroke="none">
<path d="M2265 4555 c-203 -31 -336 -83 -515 -201 -212 -141 -400 -397 -436
-594 -9 -47 -18 -98 -21 -115 -3 -16 -7 -83 -8 -147 -1 -65 -4 -120 -6 -123
-3 -2 -29 2 -59 10 -101 27 -271 17 -357 -21 -17 -8 -34 -14 -38 -14 -18 0
-183 -116 -223 -157 -24 -25 -55 -68 -69 -97 -13 -28 -32 -66 -42 -83 -12 -21
-21 -66 -25 -126 -6 -82 -4 -102 16 -163 30 -94 101 -184 194 -244 82 -53 121
-66 255 -83 l96 -12 -32 -70 c-52 -111 -65 -142 -65 -153 0 -6 -6 -23 -14 -39
-23 -46 -74 -217 -91 -306 -9 -45 -20 -91 -25 -102 -14 -34 -34 -206 -33 -285
2 -169 13 -241 53 -354 40 -110 57 -140 118 -206 70 -77 132 -113 224 -131 59
-11 80 -10 160 4 97 18 265 75 365 125 32 16 74 34 94 41 20 6 45 20 57 31 12
11 26 20 32 20 6 0 64 29 130 65 66 36 123 65 128 65 5 0 26 13 48 30 66 50
71 48 190 -89 26 -30 62 -76 81 -103 19 -26 38 -48 42 -48 4 0 15 -14 25 -32
29 -47 215 -261 241 -275 12 -7 25 -19 28 -27 5 -13 162 -126 175 -126 4 0 23
-10 42 -23 77 -51 125 -62 280 -61 86 0 163 5 190 13 74 21 180 90 256 166 73
72 135 176 170 283 8 26 19 56 23 67 23 57 51 196 52 255 0 14 4 36 9 50 5 14
11 72 15 130 3 58 6 112 8 120 8 58 -17 241 -48 347 -39 131 -92 282 -105 298
-4 5 -10 26 -12 45 -3 34 -3 35 44 41 26 4 52 11 59 15 7 4 22 8 33 10 62 9
254 114 296 162 8 10 25 24 37 33 38 26 127 142 165 215 25 47 41 97 51 157
l16 89 -32 91 c-27 78 -40 99 -82 140 -54 52 -169 115 -250 137 -58 16 -186
19 -299 6 -65 -7 -77 -6 -71 5 5 7 10 85 11 174 3 175 -10 272 -47 352 -12 27
-27 68 -35 91 -25 81 -143 249 -242 348 -213 211 -470 337 -785 383 -173 26
-253 25 -442 -4z m458 -160 c93 -19 291 -87 315 -108 9 -8 37 -25 61 -37 84
-42 163 -103 253 -195 121 -125 201 -243 251 -374 37 -98 40 -117 48 -246 8
-142 3 -184 -42 -345 -5 -20 -6 -48 -1 -65 8 -29 11 -30 71 -33 51 -2 77 3
144 29 164 63 312 47 429 -45 63 -50 103 -111 113 -172 5 -34 1 -50 -31 -110
-46 -88 -91 -145 -165 -210 -41 -36 -154 -111 -180 -119 -13 -4 -42 -18 -64
-31 -29 -16 -75 -27 -168 -40 -147 -19 -152 -23 -145 -108 4 -51 9 -62 62
-160 34 -62 91 -208 107 -272 6 -27 22 -80 35 -117 30 -84 32 -209 9 -402 -26
-211 -49 -296 -116 -430 -69 -139 -79 -152 -175 -222 -109 -80 -152 -97 -259
-97 -102 0 -113 4 -266 104 -94 62 -199 151 -199 169 0 5 -8 16 -18 23 -10 7
-34 34 -53 59 -100 135 -148 196 -169 214 -12 11 -37 43 -56 70 -18 28 -58 76
-88 106 -67 68 -113 84 -215 77 -69 -5 -78 -9 -206 -79 -27 -15 -72 -39 -100
-53 -27 -14 -63 -35 -80 -46 -16 -11 -48 -27 -70 -37 -22 -10 -87 -42 -145
-71 -128 -65 -249 -109 -340 -123 -85 -13 -121 0 -192 71 -61 60 -82 97 -116
205 -24 73 -26 94 -26 245 0 141 4 182 27 285 14 66 36 145 48 175 11 30 24
69 28 85 27 104 91 249 178 396 62 105 75 143 65 189 l-8 35 -74 -1 c-41 0
-102 -9 -135 -18 -86 -26 -146 -18 -246 32 -85 42 -129 73 -129 89 0 5 -11 20
-24 32 -29 28 -50 107 -43 162 7 55 77 166 134 214 159 135 309 176 448 125
66 -25 99 -50 121 -92 14 -27 18 -28 88 -28 l73 0 6 40 c3 26 -3 70 -19 128
-14 50 -27 129 -30 187 -5 87 -2 128 20 257 19 107 267 435 366 481 19 10 59
35 88 57 29 22 56 40 61 40 4 0 41 15 82 34 188 87 450 115 662 71z"/>
<path d="M2178 3778 c-22 -28 -26 -61 -13 -123 7 -37 31 -62 67 -70 23 -6 33
-2 55 23 23 27 26 38 24 89 -2 43 -8 64 -24 81 -28 30 -85 30 -109 0z"/>
<path d="M2872 3780 c-47 -19 -59 -129 -19 -176 31 -36 82 -38 107 -4 21 27
31 103 18 138 -6 18 -64 55 -80 51 -2 0 -13 -4 -26 -9z"/>
<path d="M1997 3392 c-42 -46 5 -174 94 -258 65 -61 199 -152 243 -165 132
-40 294 -48 401 -20 78 20 240 99 275 134 42 43 120 150 126 174 10 40 -4 70
-41 87 -32 16 -38 16 -68 1 -19 -9 -43 -32 -55 -53 -45 -81 -106 -125 -247
-183 -114 -46 -282 -34 -399 29 -78 42 -160 127 -180 189 -10 30 -27 58 -41
67 -33 22 -88 20 -108 -2z"/>
</g>
</svg>
