<?xml version="1.0" standalone="no"?>
<!DOCTYPE svg PUBLIC "-//W3C//DTD SVG 20010904//EN"
 "http://www.w3.org/TR/2001/REC-SVG-20010904/DTD/svg10.dtd">
<svg version="1.0" xmlns="http://www.w3.org/2000/svg"
 width="500.000000pt" height="500.000000pt" viewBox="0 0 500.000000 500.000000"
 preserveAspectRatio="xMidYMid meet">

<g transform="translate(0.000000,500.000000) scale(0.100000,-0.100000)"
fill="#000000" stroke="none">
<path d="M2405 4793 c-220 -28 -328 -48 -399 -74 -101 -37 -276 -122 -313
-152 -15 -13 -46 -34 -68 -47 -108 -64 -296 -289 -373 -447 -15 -32 -33 -67
-39 -78 -6 -11 -18 -65 -27 -120 -9 -55 -22 -123 -28 -152 -6 -29 -9 -95 -6
-152 5 -100 5 -101 -18 -101 -12 0 -35 5 -51 11 -15 6 -75 13 -133 14 -106 3
-191 -11 -257 -41 -17 -8 -35 -14 -40 -14 -5 0 -57 -31 -114 -68 -112 -74
-169 -130 -203 -202 -11 -25 -32 -61 -46 -80 -21 -29 -26 -51 -34 -156 -9
-114 -8 -126 13 -190 34 -100 110 -196 212 -265 79 -53 143 -75 264 -90 58 -7
110 -16 116 -20 8 -4 3 -21 -15 -51 -14 -25 -26 -52 -26 -61 0 -10 -4 -17 -10
-17 -5 0 -10 -7 -10 -15 0 -16 -22 -70 -51 -127 -10 -20 -19 -45 -19 -54 0 -9
-14 -58 -32 -108 -30 -87 -69 -249 -88 -366 -5 -30 -13 -82 -19 -115 -9 -55
-8 -246 3 -340 8 -75 52 -216 95 -303 33 -67 126 -171 188 -209 112 -71 303
-73 482 -6 124 46 196 75 251 103 30 15 74 33 97 40 23 7 52 24 64 36 13 13
28 24 36 24 7 0 76 34 152 75 77 41 142 75 145 75 4 0 25 13 48 30 22 16 49
30 58 30 23 0 57 -34 155 -154 44 -54 97 -117 118 -141 20 -23 37 -46 37 -50
0 -7 68 -90 140 -170 25 -28 59 -66 75 -85 42 -48 101 -99 155 -135 25 -16 57
-39 72 -51 15 -12 58 -37 95 -55 37 -17 76 -36 86 -41 46 -23 187 -32 312 -20
106 10 135 17 187 43 82 42 170 100 187 124 8 11 34 38 57 61 45 43 125 189
160 294 10 30 22 59 26 65 4 5 8 21 8 36 0 15 9 56 20 91 11 35 21 94 24 130
2 36 7 72 11 78 20 33 25 382 8 505 -12 80 -123 440 -148 479 -8 12 -16 37
-20 57 l-7 36 61 7 c33 4 63 11 66 16 4 6 18 10 33 10 15 0 36 6 47 14 11 7
38 19 60 26 90 29 278 178 367 291 39 49 98 158 113 209 4 14 12 30 17 37 5 7
7 16 4 21 -3 6 -1 35 5 66 9 53 8 65 -20 149 -17 51 -39 104 -49 119 -43 65
-171 151 -281 189 -70 25 -231 40 -291 29 -25 -5 -71 -11 -103 -14 l-59 -6 8
32 c10 50 12 336 2 398 -9 54 -34 133 -80 257 -44 116 -179 309 -278 398 -6 6
-26 26 -45 45 -44 46 -56 55 -150 121 -129 89 -160 105 -335 172 -199 76 -494
121 -655 100z m281 -188 c104 -17 370 -101 399 -125 11 -9 49 -34 85 -54 36
-21 81 -47 100 -59 52 -33 280 -265 320 -325 19 -30 45 -66 57 -81 12 -16 43
-86 69 -157 43 -122 46 -137 54 -274 8 -147 3 -195 -41 -361 -11 -44 -12 -99
-1 -117 14 -22 140 -18 187 5 63 32 142 53 230 59 67 5 91 3 145 -16 148 -49
257 -159 267 -268 4 -40 -1 -58 -32 -117 -90 -168 -214 -279 -435 -388 -57
-28 -110 -47 -130 -47 -47 -1 -204 -25 -218 -34 -7 -4 -12 -35 -12 -79 0 -75
0 -75 65 -192 40 -73 105 -240 120 -310 7 -33 23 -86 34 -117 35 -97 37 -248
7 -478 -31 -237 -49 -300 -128 -457 -64 -126 -86 -154 -178 -226 -81 -64 -144
-95 -217 -108 -134 -23 -198 -5 -374 111 -82 54 -219 170 -219 185 0 3 -14 20
-30 38 -36 38 -85 101 -136 175 -20 29 -60 78 -90 108 -29 31 -56 64 -59 74
-3 10 -12 21 -20 24 -8 3 -15 11 -15 17 0 7 -15 28 -32 47 -109 116 -129 125
-267 120 -99 -3 -109 -6 -156 -36 -27 -17 -61 -37 -75 -43 -14 -6 -32 -15 -40
-20 -8 -5 -34 -18 -57 -29 -24 -10 -69 -37 -102 -59 -33 -21 -83 -48 -113 -59
-64 -24 -173 -78 -208 -103 -14 -10 -80 -36 -146 -58 -158 -53 -236 -56 -306
-12 -25 16 -55 43 -67 60 -12 17 -29 31 -37 31 -8 0 -14 7 -14 15 0 9 -8 28
-17 42 -23 35 -60 150 -77 238 -30 155 9 482 80 670 14 39 30 86 34 105 25
104 98 266 188 417 72 120 86 163 75 218 l-9 40 -79 -1 c-50 0 -108 -9 -155
-22 -55 -16 -89 -20 -125 -15 -53 6 -148 43 -159 62 -4 6 -15 11 -26 11 -18 0
-99 59 -99 73 -1 5 -16 26 -33 49 -31 37 -33 46 -36 127 l-3 86 49 77 c92 144
276 262 433 275 55 5 79 1 145 -21 92 -31 118 -48 142 -96 l17 -35 82 -3 81
-3 7 48 c5 36 0 73 -20 147 -41 159 -43 326 -7 481 13 53 76 172 145 270 56
80 215 255 233 255 5 0 33 16 61 35 29 19 56 35 60 35 5 0 14 9 21 20 7 11 20
20 31 20 10 0 42 13 72 29 78 41 192 78 284 91 44 6 100 15 125 20 75 13 202
11 296 -5z"/>
<path d="M2142 3913 c-24 -30 -28 -72 -12 -137 19 -83 90 -107 139 -47 25 30
29 57 22 147 -1 6 -13 23 -27 38 -37 37 -92 36 -122 -1z"/>
<path d="M2891 3903 c-25 -22 -38 -114 -22 -155 21 -56 95 -78 134 -40 26 26
41 123 24 159 -22 48 -97 68 -136 36z"/>
<path d="M1946 3489 c-37 -29 -35 -79 9 -167 60 -120 253 -274 390 -311 213
-59 397 -47 556 35 129 66 165 94 224 171 94 125 105 173 49 210 -59 38 -123
12 -164 -67 -10 -19 -36 -52 -58 -73 -38 -38 -143 -97 -171 -97 -8 0 -22 -6
-30 -14 -42 -36 -259 -38 -372 -3 -103 32 -248 161 -270 240 -23 86 -103 123
-163 76z"/>
</g>
</svg>
