<?xml version="1.0" standalone="no"?>
<!DOCTYPE svg PUBLIC "-//W3C//DTD SVG 20010904//EN"
 "http://www.w3.org/TR/2001/REC-SVG-20010904/DTD/svg10.dtd">
<svg version="1.0" xmlns="http://www.w3.org/2000/svg"
 width="500.000000pt" height="500.000000pt" viewBox="0 0 500.000000 500.000000"
 preserveAspectRatio="xMidYMid meet">

<g transform="translate(0.000000,500.000000) scale(0.100000,-0.100000)"
fill="#000000" stroke="none">
<path d="M2260 4625 c-153 -24 -238 -52 -385 -127 -44 -22 -89 -48 -100 -58
-11 -10 -40 -30 -65 -45 -115 -72 -274 -268 -353 -437 -48 -102 -81 -279 -78
-420 2 -102 1 -108 -18 -108 -11 0 -32 5 -48 11 -70 27 -289 11 -361 -27 -15
-8 -32 -14 -38 -14 -6 0 -52 -27 -102 -60 -98 -66 -159 -129 -194 -200 -12
-25 -30 -56 -39 -70 -12 -16 -20 -52 -24 -100 -3 -41 -8 -87 -11 -102 -9 -43
40 -170 91 -236 93 -119 194 -174 366 -198 63 -9 115 -17 116 -18 1 -1 -13
-33 -32 -71 -49 -102 -65 -141 -65 -158 0 -8 -7 -20 -15 -27 -8 -7 -15 -22
-15 -34 0 -11 -14 -59 -30 -106 -34 -94 -64 -231 -99 -445 -15 -92 -5 -300 19
-395 45 -180 106 -285 215 -370 38 -29 72 -45 138 -61 86 -22 88 -22 183 -5
52 9 134 32 181 51 47 19 90 35 96 35 6 0 41 16 78 35 37 19 92 44 122 55 30
11 58 27 61 35 3 8 12 15 20 15 8 0 56 23 108 50 51 28 116 62 143 76 28 13
68 35 89 49 50 30 56 26 161 -101 44 -54 95 -114 113 -135 18 -21 45 -56 60
-77 31 -45 164 -203 202 -239 14 -13 39 -36 55 -52 33 -31 136 -103 200 -138
77 -44 108 -54 201 -70 86 -14 103 -14 211 1 104 15 127 22 193 59 45 25 105
72 150 117 62 61 85 93 122 170 55 114 117 305 126 390 1 14 4 43 7 65 40 333
35 469 -26 675 -22 74 -56 175 -75 223 -20 48 -36 100 -37 115 -2 25 2 27 43
34 79 12 125 24 150 40 14 9 38 19 53 22 58 14 248 164 314 250 68 87 137 226
134 267 -1 9 3 36 8 60 9 39 7 56 -21 139 -28 85 -37 100 -87 149 -39 37 -85
68 -149 98 -118 57 -233 72 -380 50 -51 -7 -95 -11 -96 -8 -2 3 -1 27 3 52 10
64 5 312 -7 380 -6 30 -26 96 -46 147 -20 50 -36 96 -36 100 0 5 -12 25 -27
45 -16 20 -50 70 -77 112 -42 66 -86 118 -138 161 -7 7 -25 25 -39 40 -30 34
-40 42 -145 115 -84 59 -173 108 -246 134 -320 117 -521 139 -828 90z m447
-154 c123 -24 321 -87 348 -111 11 -10 47 -31 80 -48 33 -16 69 -39 79 -51 11
-12 24 -21 31 -21 6 0 57 -43 113 -96 171 -161 294 -376 323 -568 14 -87 6
-271 -16 -356 -24 -97 -30 -157 -15 -175 20 -24 117 -19 181 8 62 28 121 43
200 52 171 21 379 -130 379 -275 0 -68 -104 -242 -171 -287 -13 -9 -29 -22
-35 -29 -12 -15 -161 -114 -171 -114 -3 0 -33 -13 -67 -30 -46 -22 -90 -33
-180 -45 -66 -8 -124 -19 -129 -24 -5 -5 -7 -42 -5 -83 3 -63 9 -83 44 -143
53 -94 124 -272 124 -315 0 -14 10 -45 21 -70 31 -68 45 -221 31 -344 -6 -56
-16 -141 -22 -191 -6 -49 -22 -129 -35 -177 -30 -103 -120 -280 -167 -325
-119 -117 -205 -160 -333 -169 -87 -6 -92 -5 -149 26 -201 109 -338 233 -485
441 -22 31 -62 81 -90 111 -28 31 -51 60 -51 65 0 5 -8 16 -17 25 -10 9 -29
31 -43 49 -38 50 -71 79 -114 101 -33 17 -54 19 -135 16 -83 -4 -102 -8 -141
-31 -60 -37 -71 -43 -100 -56 -44 -21 -84 -43 -145 -81 -33 -20 -76 -43 -95
-51 -19 -7 -84 -39 -145 -70 -60 -30 -158 -72 -217 -92 -164 -57 -228 -49
-316 40 -63 63 -84 101 -118 214 -27 88 -29 105 -28 254 1 172 24 308 77 460
13 39 36 106 50 150 24 75 86 213 125 280 107 182 115 203 98 253 l-13 37 -69
-1 c-41 0 -99 -9 -143 -23 -65 -19 -80 -20 -127 -11 -89 19 -254 113 -254 146
0 4 -12 20 -27 36 -23 24 -27 38 -30 105 -4 75 -3 80 31 137 20 32 36 62 36
66 0 4 24 28 53 52 169 144 308 186 453 138 84 -28 117 -50 134 -90 12 -30 13
-30 90 -30 l77 0 6 40 c3 26 -3 70 -19 128 -30 106 -41 270 -25 362 7 36 13
75 15 88 5 32 59 134 125 231 55 83 201 242 232 253 8 3 42 23 74 45 74 49 70
46 140 81 91 44 187 73 309 92 149 24 246 24 363 1z"/>
<path d="M2192 3844 c-18 -20 -35 -81 -27 -95 4 -5 8 -21 10 -35 3 -35 43 -74
75 -74 43 0 74 42 77 103 3 79 -25 116 -87 116 -19 0 -41 -7 -48 -15z"/>
<path d="M2876 3827 c-12 -9 -19 -32 -23 -74 -5 -59 -4 -63 25 -92 64 -65 132
-23 132 82 0 38 -5 53 -25 72 -27 28 -80 34 -109 12z"/>
<path d="M2018 3455 c-52 -29 -42 -109 28 -211 51 -75 231 -211 309 -233 56
-16 220 -41 269 -41 73 0 176 28 265 72 123 60 143 76 211 166 86 115 90 166
15 189 -49 15 -76 4 -111 -47 -54 -78 -85 -109 -141 -139 -31 -17 -65 -33 -77
-37 -11 -3 -36 -12 -55 -21 -18 -8 -68 -17 -111 -20 -207 -15 -379 74 -455
233 -46 96 -87 121 -147 89z"/>
</g>
</svg>
